# xmcd
#
# Track frame offsets:
#	150
#	14245
#	35092
#	53960
#	75537
#	97622
#	113597
#	133652
#	153417
#	167067
#	180357
#	197492
#
# Disc length: 2874 seconds
#
# Revision: 0
# Processed by: cddbd v1.4PL0 Copyright (c) Steve Scherf et al.
# Submitted via: OrangeCD 4.1
#
DISCID=900b380c
DTITLE=Flying Emus - This Town
DYEAR=1900
DGENRE=
TTITLE0=I'm In Love With Love
TTITLE1=This Town
TTITLE2=Darling Street
TTITLE3=Hey Sister
TTITLE4=Old Man
TTITLE5=Something Somewhere/Say Old Man
TTITLE6=It's A Sunburnt Country
TTITLE7=Auctioneer
TTITLE8=Jackaroo
TTITLE9=Crocodile Water
TTITLE10=Coalminer
TTITLE11=If You Won't Go Away
EXTD=
EXTT0=
EXTT1=
EXTT2=
EXTT3=
EXTT4=
EXTT5=
EXTT6=
EXTT7=
EXTT8=
EXTT9=
EXTT10=
EXTT11=
PLAYORDER=
